<mxfile host="app.diagrams.net" modified="2024-03-18T18:49:06.948Z" agent="Mozilla/5.0 (Windows NT 10.0; Win64; x64) AppleWebKit/537.36 (KHTML, like Gecko) Chrome/122.0.0.0 Safari/537.36" etag="VPdtjuXy_4Fe3fY-CzaZ" version="23.1.8" type="google" pages="2">
  <diagram name="Updated feb 28 2024" id="MFB7_ZtbY8_FiFMUINye">
    <mxGraphModel grid="1" page="1" gridSize="10" guides="1" tooltips="1" connect="1" arrows="1" fold="1" pageScale="1" pageWidth="850" pageHeight="1100" math="0" shadow="0">
      <root>
        <mxCell id="0" />
        <mxCell id="1" parent="0" />
        <mxCell id="yn1ocnmxUp3zmr552GM8-1" value="Data Analyst" style="shape=umlActor;verticalLabelPosition=bottom;verticalAlign=top;html=1;outlineConnect=0;" vertex="1" parent="1">
          <mxGeometry x="90" y="180" width="30" height="60" as="geometry" />
        </mxCell>
        <mxCell id="yn1ocnmxUp3zmr552GM8-2" value="System&amp;nbsp;&lt;br&gt;Administrator" style="shape=umlActor;verticalLabelPosition=bottom;verticalAlign=top;html=1;outlineConnect=0;" vertex="1" parent="1">
          <mxGeometry x="850" y="435" width="30" height="60" as="geometry" />
        </mxCell>
        <mxCell id="yn1ocnmxUp3zmr552GM8-9" value="Algorithmic Trading System - Use Cases" style="shape=umlFrame;whiteSpace=wrap;html=1;pointerEvents=0;width=180;height=30;" vertex="1" parent="1">
          <mxGeometry x="160" y="50" width="660" height="830" as="geometry" />
        </mxCell>
        <mxCell id="yn1ocnmxUp3zmr552GM8-12" value="&lt;font style=&quot;font-size: 10px;&quot;&gt;Extract data&lt;/font&gt;" style="ellipse;whiteSpace=wrap;html=1;" vertex="1" parent="1">
          <mxGeometry x="261.56" y="155" width="75" height="70" as="geometry" />
        </mxCell>
        <mxCell id="yn1ocnmxUp3zmr552GM8-13" value="&lt;font style=&quot;font-size: 10px;&quot;&gt;Request Configuration Change&lt;/font&gt;" style="ellipse;whiteSpace=wrap;html=1;" vertex="1" parent="1">
          <mxGeometry x="320" y="277.5" width="90" height="60" as="geometry" />
        </mxCell>
        <mxCell id="yn1ocnmxUp3zmr552GM8-14" value="&lt;font style=&quot;font-size: 10px;&quot;&gt;Manage&lt;br&gt;Database&lt;br&gt;&lt;/font&gt;" style="ellipse;whiteSpace=wrap;html=1;" vertex="1" parent="1">
          <mxGeometry x="600" y="620" width="95" height="60" as="geometry" />
        </mxCell>
        <mxCell id="yn1ocnmxUp3zmr552GM8-15" value="&lt;font style=&quot;font-size: 10px;&quot;&gt;Manage Data&lt;br&gt;Sources&lt;br&gt;&lt;/font&gt;" style="ellipse;whiteSpace=wrap;html=1;" vertex="1" parent="1">
          <mxGeometry x="640" y="240" width="80" height="50" as="geometry" />
        </mxCell>
        <mxCell id="yn1ocnmxUp3zmr552GM8-20" value="&lt;font style=&quot;font-size: 10px;&quot;&gt;Manage Configuration&lt;/font&gt;" style="ellipse;whiteSpace=wrap;html=1;" vertex="1" parent="1">
          <mxGeometry x="620" y="320" width="90" height="50" as="geometry" />
        </mxCell>
        <mxCell id="yn1ocnmxUp3zmr552GM8-29" value="&amp;lt;&amp;lt;Includes&amp;gt;&amp;gt;" style="endArrow=open;endSize=12;dashed=1;html=1;rounded=0;entryX=1;entryY=0.5;entryDx=0;entryDy=0;exitX=0;exitY=0.5;exitDx=0;exitDy=0;" edge="1" parent="1" source="yn1ocnmxUp3zmr552GM8-20" target="yn1ocnmxUp3zmr552GM8-13">
          <mxGeometry width="160" relative="1" as="geometry">
            <mxPoint x="290" y="350" as="sourcePoint" />
            <mxPoint x="450" y="350" as="targetPoint" />
          </mxGeometry>
        </mxCell>
        <mxCell id="DYa5kGI6fIyAy3z9Vea--2" value="&lt;font style=&quot;font-size: 10px;&quot;&gt;Backup Database&lt;/font&gt;" style="ellipse;whiteSpace=wrap;html=1;" vertex="1" parent="1">
          <mxGeometry x="607.5" y="735" width="85" height="50" as="geometry" />
        </mxCell>
        <mxCell id="DYa5kGI6fIyAy3z9Vea--6" value="Data Management &lt;br&gt;Team" style="shape=umlActor;verticalLabelPosition=bottom;verticalAlign=top;html=1;outlineConnect=0;" vertex="1" parent="1">
          <mxGeometry x="90" y="480" width="30" height="60" as="geometry" />
        </mxCell>
        <mxCell id="DYa5kGI6fIyAy3z9Vea--9" value="&lt;font style=&quot;font-size: 10px;&quot;&gt;Delete Obsolete&lt;br&gt;Data&lt;br&gt;&lt;/font&gt;" style="ellipse;whiteSpace=wrap;html=1;" vertex="1" parent="1">
          <mxGeometry x="262.5" y="620" width="85" height="60" as="geometry" />
        </mxCell>
        <mxCell id="DYa5kGI6fIyAy3z9Vea--12" value="&lt;font style=&quot;font-size: 10px;&quot;&gt;Modify schema&lt;/font&gt;" style="ellipse;whiteSpace=wrap;html=1;" vertex="1" parent="1">
          <mxGeometry x="685" y="685" width="85" height="50" as="geometry" />
        </mxCell>
        <mxCell id="DYa5kGI6fIyAy3z9Vea--23" value="&lt;font style=&quot;font-size: 10px;&quot;&gt;Manage fields&lt;br&gt;&lt;/font&gt;" style="ellipse;whiteSpace=wrap;html=1;" vertex="1" parent="1">
          <mxGeometry x="725" y="267.5" width="80" height="50" as="geometry" />
        </mxCell>
        <mxCell id="oDBmGynkf1N2dmzTlLP0-9" value="" style="endArrow=block;html=1;rounded=0;align=center;verticalAlign=bottom;endFill=0;labelBackgroundColor=none;endSize=8;exitX=0;exitY=0;exitDx=0;exitDy=0;entryX=1;entryY=1;entryDx=0;entryDy=0;" edge="1" parent="1" source="DYa5kGI6fIyAy3z9Vea--12" target="yn1ocnmxUp3zmr552GM8-14">
          <mxGeometry x="-0.4975" y="-59" relative="1" as="geometry">
            <mxPoint x="485" y="685" as="sourcePoint" />
            <mxPoint x="645" y="685" as="targetPoint" />
            <mxPoint as="offset" />
          </mxGeometry>
        </mxCell>
        <mxCell id="oDBmGynkf1N2dmzTlLP0-12" value="&lt;span style=&quot;font-size: 10px;&quot;&gt;Restore&lt;br&gt;Database&lt;br&gt;&lt;/span&gt;" style="ellipse;whiteSpace=wrap;html=1;" vertex="1" parent="1">
          <mxGeometry x="520" y="685" width="85" height="50" as="geometry" />
        </mxCell>
        <mxCell id="oDBmGynkf1N2dmzTlLP0-13" value="" style="endArrow=block;html=1;rounded=0;align=center;verticalAlign=bottom;endFill=0;labelBackgroundColor=none;endSize=8;entryX=0.5;entryY=1;entryDx=0;entryDy=0;exitX=0.5;exitY=0;exitDx=0;exitDy=0;" edge="1" parent="1" source="DYa5kGI6fIyAy3z9Vea--2" target="yn1ocnmxUp3zmr552GM8-14">
          <mxGeometry x="-0.4975" y="-59" relative="1" as="geometry">
            <mxPoint x="608" y="665" as="sourcePoint" />
            <mxPoint x="584" y="635" as="targetPoint" />
            <mxPoint as="offset" />
          </mxGeometry>
        </mxCell>
        <mxCell id="oDBmGynkf1N2dmzTlLP0-16" value="&lt;font style=&quot;font-size: 10px;&quot;&gt;Download/Export Data&lt;/font&gt;" style="ellipse;whiteSpace=wrap;html=1;" vertex="1" parent="1">
          <mxGeometry x="369.06" y="162.5" width="90" height="55" as="geometry" />
        </mxCell>
        <mxCell id="oDBmGynkf1N2dmzTlLP0-17" value="" style="endArrow=block;html=1;rounded=0;align=center;verticalAlign=bottom;endFill=0;labelBackgroundColor=none;endSize=8;entryX=1;entryY=0.5;entryDx=0;entryDy=0;exitX=0;exitY=0.5;exitDx=0;exitDy=0;" edge="1" parent="1" source="oDBmGynkf1N2dmzTlLP0-16" target="yn1ocnmxUp3zmr552GM8-12">
          <mxGeometry x="-0.4975" y="-59" relative="1" as="geometry">
            <mxPoint x="341.06" y="265" as="sourcePoint" />
            <mxPoint x="341.06" y="165" as="targetPoint" />
            <mxPoint as="offset" />
          </mxGeometry>
        </mxCell>
        <mxCell id="oDBmGynkf1N2dmzTlLP0-18" value="" style="endArrow=block;html=1;rounded=0;align=center;verticalAlign=bottom;endFill=0;labelBackgroundColor=none;endSize=8;entryX=0;entryY=1;entryDx=0;entryDy=0;exitX=1;exitY=0;exitDx=0;exitDy=0;" edge="1" parent="1" source="oDBmGynkf1N2dmzTlLP0-12" target="yn1ocnmxUp3zmr552GM8-14">
          <mxGeometry x="-0.4975" y="-59" relative="1" as="geometry">
            <mxPoint x="530" y="585" as="sourcePoint" />
            <mxPoint x="530" y="485" as="targetPoint" />
            <mxPoint as="offset" />
          </mxGeometry>
        </mxCell>
        <mxCell id="oDBmGynkf1N2dmzTlLP0-19" value="&lt;font style=&quot;font-size: 10px;&quot;&gt;Set up data&lt;br&gt;retrieval&lt;br&gt;parameters&lt;br&gt;&lt;/font&gt;" style="ellipse;whiteSpace=wrap;html=1;" vertex="1" parent="1">
          <mxGeometry x="369.06" y="75" width="108.75" height="50" as="geometry" />
        </mxCell>
        <mxCell id="oDBmGynkf1N2dmzTlLP0-23" value="&amp;lt;Includes&amp;gt;" style="endArrow=open;endSize=12;dashed=1;html=1;rounded=0;entryX=0;entryY=1;entryDx=0;entryDy=0;exitX=1;exitY=0;exitDx=0;exitDy=0;" edge="1" parent="1" source="yn1ocnmxUp3zmr552GM8-12" target="oDBmGynkf1N2dmzTlLP0-19">
          <mxGeometry width="160" relative="1" as="geometry">
            <mxPoint x="331.56" y="95" as="sourcePoint" />
            <mxPoint x="171.56" y="125" as="targetPoint" />
          </mxGeometry>
        </mxCell>
        <mxCell id="oDBmGynkf1N2dmzTlLP0-24" value="" style="shape=ellipse;container=1;horizontal=1;horizontalStack=0;resizeParent=1;resizeParentMax=0;resizeLast=0;html=1;dashed=0;collapsible=0;" vertex="1" parent="1">
          <mxGeometry x="215" y="470" width="180" height="70" as="geometry" />
        </mxCell>
        <mxCell id="oDBmGynkf1N2dmzTlLP0-26" value="" style="line;strokeWidth=1;fillColor=none;rotatable=0;labelPosition=right;points=[];portConstraint=eastwest;dashed=0;resizeWidth=1;" vertex="1" parent="oDBmGynkf1N2dmzTlLP0-24">
          <mxGeometry x="9" y="17.5" width="162" height="5.833333333333334" as="geometry" />
        </mxCell>
        <mxCell id="oDBmGynkf1N2dmzTlLP0-28" value="&lt;font style=&quot;font-size: 10px;&quot;&gt;&lt;span style=&quot;white-space: pre;&quot;&gt;&#x9;&lt;/span&gt;Load required&lt;br&gt;&lt;span style=&quot;white-space: pre;&quot;&gt;&#x9;&lt;/span&gt;Deletion&amp;nbsp;required&lt;/font&gt;" style="text;html=1;align=left;verticalAlign=middle;rotatable=0;spacingLeft=25;fillColor=none;strokeColor=none;whiteSpace=wrap;" vertex="1" parent="oDBmGynkf1N2dmzTlLP0-24">
          <mxGeometry x="9" y="37.91375000000001" width="128.57142857142858" height="17.5" as="geometry" />
        </mxCell>
        <mxCell id="oDBmGynkf1N2dmzTlLP0-25" value="&lt;font style=&quot;font-size: 10px;&quot;&gt;Manage data&lt;/font&gt;" style="html=1;strokeColor=none;fillColor=none;align=center;verticalAlign=middle;rotatable=0;whiteSpace=wrap;" vertex="1" parent="oDBmGynkf1N2dmzTlLP0-24">
          <mxGeometry width="180" height="17.5" as="geometry" />
        </mxCell>
        <mxCell id="oDBmGynkf1N2dmzTlLP0-27" value="&lt;b&gt;&lt;font style=&quot;font-size: 10px;&quot;&gt;extension points&lt;/font&gt;&lt;/b&gt;" style="text;html=1;align=center;verticalAlign=middle;rotatable=0;fillColor=none;strokeColor=none;whiteSpace=wrap;" vertex="1" parent="oDBmGynkf1N2dmzTlLP0-24">
          <mxGeometry y="17.496666666666613" width="180" height="17.5" as="geometry" />
        </mxCell>
        <mxCell id="oDBmGynkf1N2dmzTlLP0-29" value="&amp;lt;&amp;lt;Extends&amp;gt;&amp;gt;&lt;br&gt;Deletion required" style="endArrow=open;endSize=12;dashed=1;html=1;rounded=0;entryX=0.5;entryY=1;entryDx=0;entryDy=0;exitX=0.5;exitY=0;exitDx=0;exitDy=0;" edge="1" parent="1" source="DYa5kGI6fIyAy3z9Vea--9" target="oDBmGynkf1N2dmzTlLP0-24">
          <mxGeometry x="0.0107" width="160" relative="1" as="geometry">
            <mxPoint x="340" y="595" as="sourcePoint" />
            <mxPoint x="361" y="660" as="targetPoint" />
            <Array as="points" />
            <mxPoint as="offset" />
          </mxGeometry>
        </mxCell>
        <mxCell id="oDBmGynkf1N2dmzTlLP0-30" value="" style="endArrow=block;html=1;rounded=0;align=center;verticalAlign=bottom;endFill=0;labelBackgroundColor=none;endSize=8;entryX=0;entryY=0.5;entryDx=0;entryDy=0;exitX=1;exitY=0.5;exitDx=0;exitDy=0;" edge="1" parent="1" source="DYa5kGI6fIyAy3z9Vea--9" target="yn1ocnmxUp3zmr552GM8-14">
          <mxGeometry x="-0.4975" y="-59" relative="1" as="geometry">
            <mxPoint x="420" y="679" as="sourcePoint" />
            <mxPoint x="484" y="600" as="targetPoint" />
            <mxPoint as="offset" />
          </mxGeometry>
        </mxCell>
        <mxCell id="oDBmGynkf1N2dmzTlLP0-37" value="" style="endArrow=block;html=1;rounded=0;align=center;verticalAlign=bottom;endFill=0;labelBackgroundColor=none;endSize=8;exitX=0.5;exitY=0;exitDx=0;exitDy=0;exitPerimeter=0;" edge="1" parent="1" source="DYa5kGI6fIyAy3z9Vea--6">
          <mxGeometry x="-0.4975" y="-59" relative="1" as="geometry">
            <mxPoint x="100" y="422.5" as="sourcePoint" />
            <mxPoint x="105" y="262.5" as="targetPoint" />
            <mxPoint as="offset" />
          </mxGeometry>
        </mxCell>
        <mxCell id="oDBmGynkf1N2dmzTlLP0-38" value="" style="endArrow=block;html=1;rounded=0;align=center;verticalAlign=bottom;endFill=0;labelBackgroundColor=none;endSize=8;" edge="1" parent="1" source="yn1ocnmxUp3zmr552GM8-2">
          <mxGeometry x="-0.4975" y="-59" relative="1" as="geometry">
            <mxPoint x="800" y="360" as="sourcePoint" />
            <mxPoint x="110" y="580" as="targetPoint" />
            <mxPoint as="offset" />
            <Array as="points">
              <mxPoint x="920" y="465" />
              <mxPoint x="920" y="640" />
              <mxPoint x="920" y="920" />
              <mxPoint x="110" y="920" />
            </Array>
          </mxGeometry>
        </mxCell>
        <mxCell id="oDBmGynkf1N2dmzTlLP0-39" value="&lt;font style=&quot;font-size: 10px;&quot;&gt;Manual Data&lt;br&gt;Load&lt;br&gt;&lt;/font&gt;" style="ellipse;whiteSpace=wrap;html=1;" vertex="1" parent="1">
          <mxGeometry x="555" y="550" width="90" height="50" as="geometry" />
        </mxCell>
        <mxCell id="oDBmGynkf1N2dmzTlLP0-41" value="&amp;lt;&amp;lt;Extends&amp;gt;&amp;gt;&lt;br&gt;Load required" style="endArrow=open;endSize=12;dashed=1;html=1;rounded=0;entryX=1;entryY=0.5;entryDx=0;entryDy=0;exitX=0;exitY=0.5;exitDx=0;exitDy=0;" edge="1" parent="1" source="oDBmGynkf1N2dmzTlLP0-39" target="oDBmGynkf1N2dmzTlLP0-24">
          <mxGeometry x="0.0107" width="160" relative="1" as="geometry">
            <mxPoint x="500" y="510" as="sourcePoint" />
            <mxPoint x="500" y="440" as="targetPoint" />
            <Array as="points" />
            <mxPoint as="offset" />
          </mxGeometry>
        </mxCell>
        <mxCell id="oDBmGynkf1N2dmzTlLP0-42" value="" style="endArrow=block;html=1;rounded=0;align=center;verticalAlign=bottom;endFill=0;labelBackgroundColor=none;endSize=8;exitX=0.5;exitY=1;exitDx=0;exitDy=0;entryX=0.5;entryY=0;entryDx=0;entryDy=0;" edge="1" parent="1" source="yn1ocnmxUp3zmr552GM8-15" target="yn1ocnmxUp3zmr552GM8-20">
          <mxGeometry x="-0.4975" y="-59" relative="1" as="geometry">
            <mxPoint x="633.75" y="271.5" as="sourcePoint" />
            <mxPoint x="593.75" y="202.5" as="targetPoint" />
            <mxPoint as="offset" />
          </mxGeometry>
        </mxCell>
        <mxCell id="oDBmGynkf1N2dmzTlLP0-43" value="" style="endArrow=block;html=1;rounded=0;align=center;verticalAlign=bottom;endFill=0;labelBackgroundColor=none;endSize=8;exitX=0;exitY=1;exitDx=0;exitDy=0;entryX=1;entryY=0;entryDx=0;entryDy=0;" edge="1" parent="1" source="DYa5kGI6fIyAy3z9Vea--23" target="yn1ocnmxUp3zmr552GM8-20">
          <mxGeometry x="-0.4975" y="-59" relative="1" as="geometry">
            <mxPoint x="650" y="237.5" as="sourcePoint" />
            <mxPoint x="610" y="168.5" as="targetPoint" />
            <mxPoint as="offset" />
          </mxGeometry>
        </mxCell>
        <mxCell id="oDBmGynkf1N2dmzTlLP0-46" value="" style="endArrow=none;html=1;rounded=0;" edge="1" parent="1" source="DYa5kGI6fIyAy3z9Vea--6" target="oDBmGynkf1N2dmzTlLP0-24">
          <mxGeometry width="50" height="50" relative="1" as="geometry">
            <mxPoint x="150" y="630" as="sourcePoint" />
            <mxPoint x="200" y="580" as="targetPoint" />
          </mxGeometry>
        </mxCell>
        <mxCell id="oDBmGynkf1N2dmzTlLP0-47" value="" style="endArrow=none;html=1;rounded=0;entryX=0;entryY=0.5;entryDx=0;entryDy=0;" edge="1" parent="1" source="yn1ocnmxUp3zmr552GM8-1" target="yn1ocnmxUp3zmr552GM8-12">
          <mxGeometry width="50" height="50" relative="1" as="geometry">
            <mxPoint x="145" y="209" as="sourcePoint" />
            <mxPoint x="215" y="190" as="targetPoint" />
          </mxGeometry>
        </mxCell>
        <mxCell id="oDBmGynkf1N2dmzTlLP0-48" value="" style="endArrow=none;html=1;rounded=0;entryX=0;entryY=0.5;entryDx=0;entryDy=0;" edge="1" parent="1" source="yn1ocnmxUp3zmr552GM8-1" target="yn1ocnmxUp3zmr552GM8-13">
          <mxGeometry width="50" height="50" relative="1" as="geometry">
            <mxPoint x="89.5" y="237.5" as="sourcePoint" />
            <mxPoint x="267.5" y="237.5" as="targetPoint" />
          </mxGeometry>
        </mxCell>
        <mxCell id="oDBmGynkf1N2dmzTlLP0-50" value="" style="endArrow=none;html=1;rounded=0;exitX=1;exitY=0.5;exitDx=0;exitDy=0;" edge="1" parent="1" source="yn1ocnmxUp3zmr552GM8-14" target="yn1ocnmxUp3zmr552GM8-2">
          <mxGeometry width="50" height="50" relative="1" as="geometry">
            <mxPoint x="510" y="420" as="sourcePoint" />
            <mxPoint x="850" y="650" as="targetPoint" />
          </mxGeometry>
        </mxCell>
        <mxCell id="oDBmGynkf1N2dmzTlLP0-51" value="" style="endArrow=none;html=1;rounded=0;exitX=1;exitY=0.5;exitDx=0;exitDy=0;" edge="1" parent="1" source="yn1ocnmxUp3zmr552GM8-20" target="yn1ocnmxUp3zmr552GM8-2">
          <mxGeometry width="50" height="50" relative="1" as="geometry">
            <mxPoint x="773.837948014806" y="392.41427514914085" as="sourcePoint" />
            <mxPoint x="790" y="260" as="targetPoint" />
          </mxGeometry>
        </mxCell>
        <mxCell id="oDBmGynkf1N2dmzTlLP0-52" value="" style="endArrow=none;html=1;rounded=0;exitX=1;exitY=0.5;exitDx=0;exitDy=0;" edge="1" parent="1" source="oDBmGynkf1N2dmzTlLP0-39" target="yn1ocnmxUp3zmr552GM8-2">
          <mxGeometry width="50" height="50" relative="1" as="geometry">
            <mxPoint x="540" y="220" as="sourcePoint" />
            <mxPoint x="710" y="385" as="targetPoint" />
          </mxGeometry>
        </mxCell>
        <mxCell id="oDBmGynkf1N2dmzTlLP0-53" value="&lt;font style=&quot;font-size: 10px;&quot;&gt;All user are generalized to the Actor: &quot;Student Research Assistant (Not shown here)&lt;/font&gt;" style="shape=note2;boundedLbl=1;whiteSpace=wrap;html=1;size=25;verticalAlign=top;align=center;" vertex="1" parent="1">
          <mxGeometry x="710" y="50" width="110" height="100" as="geometry" />
        </mxCell>
        <mxCell id="sjR9IYRWbyoCVAfEPRT9-1" value="&lt;font style=&quot;font-size: 10px;&quot;&gt;Fix data loading problems&lt;br&gt;&lt;/font&gt;" style="ellipse;whiteSpace=wrap;html=1;" vertex="1" parent="1">
          <mxGeometry x="660" y="470" width="90" height="50" as="geometry" />
        </mxCell>
        <mxCell id="sjR9IYRWbyoCVAfEPRT9-4" value="&amp;lt;&amp;lt;Extends&amp;gt;&amp;gt;&lt;br&gt;problem occured" style="endArrow=open;endSize=12;dashed=1;html=1;rounded=0;entryX=1;entryY=0.75;entryDx=0;entryDy=0;exitX=0;exitY=0.5;exitDx=0;exitDy=0;" edge="1" parent="1" source="sjR9IYRWbyoCVAfEPRT9-1" target="sjR9IYRWbyoCVAfEPRT9-8">
          <mxGeometry x="0.0107" width="160" relative="1" as="geometry">
            <mxPoint x="572.5" y="500" as="sourcePoint" />
            <mxPoint x="590" y="495" as="targetPoint" />
            <Array as="points" />
            <mxPoint as="offset" />
          </mxGeometry>
        </mxCell>
        <mxCell id="sjR9IYRWbyoCVAfEPRT9-5" value="" style="shape=ellipse;container=1;horizontal=1;horizontalStack=0;resizeParent=1;resizeParentMax=0;resizeLast=0;html=1;dashed=0;collapsible=0;" vertex="1" parent="1">
          <mxGeometry x="440" y="380" width="140" height="60" as="geometry" />
        </mxCell>
        <mxCell id="sjR9IYRWbyoCVAfEPRT9-6" value="&lt;font style=&quot;font-size: 10px;&quot;&gt;Review log files&lt;/font&gt;" style="html=1;strokeColor=none;fillColor=none;align=center;verticalAlign=middle;rotatable=0;whiteSpace=wrap;" vertex="1" parent="sjR9IYRWbyoCVAfEPRT9-5">
          <mxGeometry width="140" height="15" as="geometry" />
        </mxCell>
        <mxCell id="sjR9IYRWbyoCVAfEPRT9-7" value="" style="line;strokeWidth=1;fillColor=none;rotatable=0;labelPosition=right;points=[];portConstraint=eastwest;dashed=0;resizeWidth=1;" vertex="1" parent="sjR9IYRWbyoCVAfEPRT9-5">
          <mxGeometry x="7" y="15" width="126" height="5" as="geometry" />
        </mxCell>
        <mxCell id="sjR9IYRWbyoCVAfEPRT9-8" value="&lt;b&gt;&lt;font style=&quot;font-size: 10px;&quot;&gt;extension points&lt;/font&gt;&lt;/b&gt;" style="text;html=1;align=center;verticalAlign=middle;rotatable=0;fillColor=none;strokeColor=none;whiteSpace=wrap;" vertex="1" parent="sjR9IYRWbyoCVAfEPRT9-5">
          <mxGeometry y="20" width="140" height="15" as="geometry" />
        </mxCell>
        <mxCell id="sjR9IYRWbyoCVAfEPRT9-9" value="&lt;font style=&quot;font-size: 10px;&quot;&gt;Problem occured&lt;/font&gt;" style="text;html=1;align=left;verticalAlign=middle;rotatable=0;spacingLeft=25;fillColor=none;strokeColor=none;whiteSpace=wrap;" vertex="1" parent="sjR9IYRWbyoCVAfEPRT9-5">
          <mxGeometry x="3.888888888888889" y="35" width="140" height="15" as="geometry" />
        </mxCell>
        <mxCell id="ttyHMX1je_txmizCPUYG-4" value="" style="endArrow=none;html=1;rounded=0;exitX=1;exitY=0.5;exitDx=0;exitDy=0;" edge="1" parent="1" source="sjR9IYRWbyoCVAfEPRT9-1" target="yn1ocnmxUp3zmr552GM8-2">
          <mxGeometry width="50" height="50" relative="1" as="geometry">
            <mxPoint x="465" y="639" as="sourcePoint" />
            <mxPoint x="620" y="470" as="targetPoint" />
          </mxGeometry>
        </mxCell>
        <mxCell id="ttyHMX1je_txmizCPUYG-9" value="" style="endArrow=none;html=1;rounded=0;entryX=0;entryY=0.75;entryDx=0;entryDy=0;" edge="1" parent="1" target="sjR9IYRWbyoCVAfEPRT9-8">
          <mxGeometry width="50" height="50" relative="1" as="geometry">
            <mxPoint x="130" y="229" as="sourcePoint" />
            <mxPoint x="330" y="353" as="targetPoint" />
            <Array as="points">
              <mxPoint x="340" y="411" />
            </Array>
          </mxGeometry>
        </mxCell>
        <mxCell id="B0VoYOqoc5h3QWa9TgX0-1" value="&lt;font style=&quot;font-size: 10px;&quot;&gt;Manage Job Scheduling&lt;br&gt;&lt;/font&gt;" style="ellipse;whiteSpace=wrap;html=1;" vertex="1" parent="1">
          <mxGeometry x="550" y="250" width="80" height="50" as="geometry" />
        </mxCell>
        <mxCell id="B0VoYOqoc5h3QWa9TgX0-2" value="" style="endArrow=block;html=1;rounded=0;align=center;verticalAlign=bottom;endFill=0;labelBackgroundColor=none;endSize=8;exitX=0.5;exitY=1;exitDx=0;exitDy=0;entryX=0;entryY=0;entryDx=0;entryDy=0;" edge="1" parent="1" source="B0VoYOqoc5h3QWa9TgX0-1" target="yn1ocnmxUp3zmr552GM8-20">
          <mxGeometry x="-0.4975" y="-59" relative="1" as="geometry">
            <mxPoint x="553.75" y="256.5" as="sourcePoint" />
            <mxPoint x="585" y="305" as="targetPoint" />
            <mxPoint as="offset" />
          </mxGeometry>
        </mxCell>
      </root>
    </mxGraphModel>
  </diagram>
  <diagram id="4b-TEOBPZ1S8zKzGpj-x" name="Page-2">
    <mxGraphModel grid="1" page="1" gridSize="10" guides="1" tooltips="1" connect="1" arrows="1" fold="1" pageScale="1" pageWidth="850" pageHeight="1100" math="0" shadow="0">
      <root>
        <mxCell id="0" />
        <mxCell id="1" parent="0" />
      </root>
    </mxGraphModel>
  </diagram>
</mxfile>
